<svg width="24" height="24" viewBox="0 0 24 24" fill="none" xmlns="http://www.w3.org/2000/svg">
<path d="M15.5 4C15.8956 4 16.2822 3.8827 16.6111 3.66294C16.94 3.44318 17.1964 3.13082 17.3478 2.76537C17.4991 2.39992 17.5387 1.99778 17.4616 1.60982C17.3844 1.22186 17.1939 0.865492 16.9142 0.585787C16.6345 0.306082 16.2781 0.115601 15.8902 0.0384303C15.5022 -0.0387401 15.1001 0.000866562 14.7346 0.152242C14.3692 0.303617 14.0568 0.559962 13.8371 0.88886C13.6173 1.21776 13.5 1.60444 13.5 2C13.5 2.53043 13.7107 3.03914 14.0858 3.41421C14.4609 3.78929 14.9696 4 15.5 4ZM5 10.5C3.67392 10.5 2.40215 11.0268 1.46447 11.9645C0.526784 12.9021 0 14.1739 0 15.5C0 16.8261 0.526784 18.0979 1.46447 19.0355C2.40215 19.9732 3.67392 20.5 5 20.5C6.32608 20.5 7.59785 19.9732 8.53553 19.0355C9.47322 18.0979 10 16.8261 10 15.5C10 14.1739 9.47322 12.9021 8.53553 11.9645C7.59785 11.0268 6.32608 10.5 5 10.5V10.5ZM5 19C4.07174 19 3.1815 18.6313 2.52513 17.9749C1.86875 17.3185 1.5 16.4283 1.5 15.5C1.5 14.5717 1.86875 13.6815 2.52513 13.0251C3.1815 12.3688 4.07174 12 5 12C5.92826 12 6.8185 12.3688 7.47487 13.0251C8.13125 13.6815 8.5 14.5717 8.5 15.5C8.5 16.4283 8.13125 17.3185 7.47487 17.9749C6.8185 18.6313 5.92826 19 5 19V19ZM10.8 9L13.2 6.6L14 7.4C14.6636 8.07717 15.4578 8.61248 16.3345 8.97347C17.2111 9.33445 18.152 9.51359 19.1 9.5V7.5C18.4301 7.50391 17.7661 7.37315 17.1477 7.11547C16.5293 6.85779 15.969 6.47846 15.5 6L13.6 4.1C13.156 3.71446 12.5881 3.5015 12 3.5C11.7359 3.48265 11.4714 3.52796 11.2281 3.63222C10.9848 3.73649 10.7696 3.89677 10.6 4.1L7.8 6.9C7.42317 7.26926 7.20751 7.77246 7.2 8.3C7.18265 8.56413 7.22796 8.82861 7.33222 9.07191C7.43649 9.3152 7.59677 9.53041 7.8 9.7L11 12.5V17.5H13V11.3L10.8 9ZM19 10.5C18.0111 10.5 17.0444 10.7932 16.2221 11.3427C15.3999 11.8921 14.759 12.673 14.3806 13.5866C14.0022 14.5002 13.9031 15.5055 14.0961 16.4755C14.289 17.4454 14.7652 18.3363 15.4645 19.0355C16.1637 19.7348 17.0546 20.211 18.0245 20.4039C18.9945 20.5969 19.9998 20.4978 20.9134 20.1194C21.827 19.741 22.6079 19.1001 23.1573 18.2779C23.7068 17.4556 24 16.4889 24 15.5C24 14.8434 23.8707 14.1932 23.6194 13.5866C23.3681 12.98 22.9998 12.4288 22.5355 11.9645C22.0712 11.5002 21.52 11.1319 20.9134 10.8806C20.3068 10.6293 19.6566 10.5 19 10.5V10.5ZM19 19C18.3078 19 17.6311 18.7947 17.0555 18.4101C16.4799 18.0256 16.0313 17.4789 15.7664 16.8394C15.5015 16.1999 15.4322 15.4961 15.5673 14.8172C15.7023 14.1383 16.0356 13.5146 16.5251 13.0251C17.0146 12.5356 17.6383 12.2023 18.3172 12.0673C18.9961 11.9322 19.6999 12.0015 20.3394 12.2664C20.9789 12.5313 21.5256 12.9799 21.9101 13.5555C22.2947 14.1311 22.5 14.8078 22.5 15.5C22.4896 16.425 22.1175 17.3092 21.4634 17.9634C20.8092 18.6175 19.925 18.9896 19 19V19Z" fill="#4D4D4D"/>
<path d="M11 21H7L13 24V22H17L11 19V21Z" fill="#4D4D4D"/>
</svg>
