<svg width="23" height="24" viewBox="0 0 23 24" fill="none" xmlns="http://www.w3.org/2000/svg">
<g clip-path="url(#clip0)">
<path d="M8.77002 4C9.87459 4 10.77 3.10457 10.77 2C10.77 0.89543 9.87459 0 8.77002 0C7.66545 0 6.77002 0.89543 6.77002 2C6.77002 3.10457 7.66545 4 8.77002 4Z" fill="#4D4D4D"/>
<path d="M21.89 6.7L18.8 4.49L19 3L12.7 9.4H10.77V8.19C11.6363 8.40521 12.5358 8.45273 13.42 8.33V6.25C12.5221 6.37466 11.6085 6.32371 10.73 6.1C10.6092 5.64074 10.3288 5.23947 9.9392 4.96799C9.54956 4.6965 9.07604 4.57252 8.60335 4.61823C8.13067 4.66393 7.68967 4.87634 7.35927 5.21745C7.02886 5.55855 6.83062 6.0061 6.8 6.48V9.4H1.8C0.19 9.4 0 11.56 0 11.56V15.71H1.58V11.87L2.37 10.67V15.29L1.59 16.5V23.24H3.66V17.13L4.72 15.47V17.47L7.21 23.23L9.12 22.41L6.8 17L7.7 15.45H13.07V23.23H15.15V15.46L17.52 10.72C17.7717 10.8036 18.0348 10.8475 18.3 10.85C18.9348 10.8513 19.5505 10.6329 20.0427 10.2319C20.5348 9.8309 20.873 9.27199 21 8.65V8.65C21.0633 8.65372 21.1267 8.65372 21.19 8.65C21.4853 8.65001 21.7687 8.53339 21.9784 8.3255C22.1882 8.11762 22.3074 7.83531 22.31 7.54C22.307 7.37753 22.2678 7.21779 22.1951 7.07245C22.1224 6.92711 22.0182 6.79985 21.89 6.7V6.7ZM18.33 10.21C18.1651 10.2054 18.0011 10.1853 17.84 10.15L18.75 8.33L20.38 8.56C20.2791 9.02832 20.0205 9.44778 19.6473 9.74815C19.2741 10.0485 18.8091 10.2116 18.33 10.21V10.21Z" fill="#4D4D4D"/>
</g>
<defs>
<clipPath id="clip0">
<rect width="22.35" height="23.24" fill="white"/>
</clipPath>
</defs>
</svg>
